<svg xmlns="http://www.w3.org/2000/svg" viewBox="0 0 100 100" role="img" aria-label="LegacyChain">
<title>LegacyChain</title>
<g fill="none" stroke="var(--legacy-ring,currentColor)" stroke-linecap="round">
<path d="M66.3 13.3Q75.5 20.1 78.9 24.5Q82.3 28.9 85.0 33.8Q87.7 38.7 89.3 44.2Q90.9 49.8 90.5 55.7Q90.0 61.6 87.2 66.8Q84.5 72.0 80.3 76.0Q76.1 80.0 71.3 82.9Q66.4 85.8 61.0 87.4Q55.6 89.0 50.0 88.9Q44.4 88.8 39.0 87.3Q33.6 85.8 28.5 83.1Q23.5 80.5 19.3 76.4Q15.1 72.2 12.9 66.8Q10.7 61.3 10.6 55.6Q10.5 49.8 11.6 44.3Q12.7 38.8 14.8 33.6Q16.8 28.3 20.3 23.8Q23.8 19.2 28.7 16.1L33.5 13.0" stroke-width="7.5"/>
<path d="M76.2 53.7Q75.3 57.4 73.7 60.8Q72.1 64.2 69.7 67.1Q67.3 69.9 64.1 71.9Q60.9 73.8 57.3 74.8Q53.7 75.9 50.0 76.2Q46.2 76.6 42.4 75.8Q38.6 74.9 35.5 72.6Q32.4 70.3 30.4 67.1Q28.3 63.9 27.0 60.5Q25.7 57.1 24.8 53.6Q23.9 50.0 24.0 46.2Q24.1 42.4 25.6 38.9Q27.1 35.3 29.7 32.4Q32.3 29.5 35.5 27.4Q38.7 25.3 42.5 24.4Q46.2 23.4 49.9 23.9Q53.7 24.4 57.1 25.7Q60.4 27.1 63.6 28.9Q66.8 30.6 69.7 33.0Q72.6 35.5 74.5 38.8Q76.4 42.2 76.8 46.1Q77.1 50.0 76.2 53.7Z" stroke-width="7.0"/>
<path d="M63.1 51.9Q62.8 53.8 61.9 55.4Q61.1 57.1 59.9 58.6Q58.7 60.0 57.2 61.3Q55.7 62.5 53.9 63.2Q52.0 63.9 50.0 63.7Q48.1 63.5 46.3 62.7Q44.6 61.8 43.1 60.8Q41.5 59.8 40.1 58.5Q38.7 57.3 37.7 55.6Q36.7 53.9 36.4 52.0Q36.1 50.0 36.5 48.1Q36.8 46.1 37.6 44.3Q38.4 42.5 39.8 41.2Q41.1 39.8 42.9 39.0Q44.6 38.2 46.4 37.9Q48.2 37.5 50.0 37.2Q51.9 36.9 53.8 37.1Q55.8 37.3 57.6 38.3Q59.3 39.3 60.5 40.9Q61.6 42.5 62.3 44.4Q62.9 46.2 63.1 48.1Q63.4 50.0 63.1 51.9Z" stroke-width="6.5"/>
<path d="M54.3 51.1Q54.0 52.3 53.1 53.1Q52.2 53.9 51.1 54.4Q50.0 54.8 48.9 54.4Q47.7 54.0 47.0 53.1Q46.3 52.1 45.8 51.1Q45.3 50.0 45.6 48.8Q45.9 47.6 46.7 46.7Q47.6 45.9 48.8 45.8Q50.0 45.7 51.1 45.9Q52.2 46.1 53.2 46.8Q54.2 47.6 54.4 48.8Q54.6 50.0 54.3 51.1Z" stroke="var(--legacy-core,#2F8FB8)" stroke-width="5.4"/>
</g>
</svg>
